<?xml version="1.0" standalone="no"?>
<!DOCTYPE svg PUBLIC "-//W3C//DTD SVG 20010904//EN"
 "http://www.w3.org/TR/2001/REC-SVG-20010904/DTD/svg10.dtd">
<svg version="1.0" xmlns="http://www.w3.org/2000/svg"
 width="1024.000000pt" height="1024.000000pt" viewBox="0 0 1024.000000 1024.000000"
 preserveAspectRatio="xMidYMid meet">

<g transform="translate(0.000000,1024.000000) scale(0.100000,-0.100000)"
fill="#000000" stroke="none">
<path d="M1338 6978 c-9 -7 -22 -26 -27 -41 -7 -18 -11 -472 -11 -1367 0
-1328 0 -1340 20 -1360 19 -19 33 -20 290 -20 259 0 271 1 290 20 21 21 21 29
18 503 l-3 482 -24 45 c-13 25 -77 131 -142 237 -94 151 -122 204 -130 247 -6
33 -9 220 -7 475 l3 419 24 26 c51 54 126 25 142 -54 5 -25 8 -223 8 -441 -1
-262 3 -403 10 -416 26 -50 123 -54 161 -6 19 25 20 38 20 450 0 360 2 428 15
453 25 49 101 53 127 7 10 -16 14 -130 18 -459 5 -428 5 -438 26 -458 12 -12
39 -24 61 -27 32 -4 45 -1 69 20 l29 25 5 442 5 442 28 24 c45 38 98 31 122
-17 13 -23 15 -102 15 -471 0 -261 -4 -458 -10 -479 -5 -19 -62 -122 -125
-229 -147 -247 -158 -277 -153 -395 4 -65 11 -101 26 -132 21 -41 349 -566
421 -673 l36 -55 305 -3 c169 -1 308 2 313 7 5 5 -109 186 -277 440 -157 237
-286 435 -286 439 0 4 13 13 29 19 68 25 200 113 273 182 136 128 222 272 269
456 21 78 24 112 23 260 -1 199 -16 272 -89 422 -125 257 -363 449 -669 540
l-91 27 -570 4 c-455 2 -573 0 -587 -10z"/>
<path d="M6893 6103 c-10 -3 -13 -45 -13 -159 l0 -153 -132 -3 -133 -3 -3
-177 -2 -178 135 0 135 0 0 -402 c0 -442 5 -488 59 -603 50 -108 134 -182 251
-221 86 -29 329 -27 428 4 l72 23 0 169 c0 94 -2 170 -4 170 -3 0 -35 -7 -73
-16 -90 -21 -193 -16 -230 12 -62 46 -63 50 -63 477 l0 387 185 0 185 0 -2
178 -3 177 -182 3 -182 2 -3 158 -3 157 -205 2 c-113 1 -211 -1 -217 -4z"/>
<path d="M4072 5820 c-159 -29 -276 -92 -397 -214 -76 -76 -99 -107 -138 -186
-78 -159 -110 -349 -88 -530 17 -134 36 -201 88 -310 39 -81 59 -108 137 -185
76 -77 106 -99 187 -139 136 -67 252 -90 419 -83 251 11 447 101 590 272 23
28 48 62 56 77 14 27 13 29 -18 48 -18 11 -88 48 -154 82 l-122 62 -68 -63
c-40 -38 -94 -76 -133 -95 -63 -30 -72 -31 -191 -31 -121 0 -127 1 -186 32
-102 53 -170 149 -192 272 l-9 51 576 2 576 3 0 130 c-1 92 -6 152 -19 205
-74 293 -264 502 -531 581 -80 24 -294 34 -383 19z m243 -335 c69 -18 152 -71
191 -123 32 -41 73 -137 74 -169 l0 -23 -361 0 -361 0 7 33 c4 17 18 56 31 85
76 170 235 244 419 197z"/>
<path d="M5665 5805 c-280 -61 -435 -237 -435 -495 0 -190 112 -332 312 -395
44 -14 159 -41 255 -61 257 -51 319 -91 310 -197 -5 -59 -39 -98 -106 -124
-71 -27 -236 -25 -323 5 -75 26 -175 86 -230 140 -37 35 -38 36 -59 16 -12
-10 -64 -68 -115 -128 l-94 -108 21 -27 c32 -42 125 -118 192 -157 298 -175
754 -142 970 70 110 107 154 227 145 388 -7 109 -36 183 -99 252 -95 104 -191
148 -430 197 -210 42 -276 64 -316 104 -60 60 -40 145 44 186 40 20 63 24 143
24 135 -1 248 -44 367 -141 23 -19 44 -34 46 -34 5 0 170 188 206 233 13 16
10 22 -20 53 -85 89 -232 166 -374 195 -107 22 -318 24 -410 4z"/>
<path d="M8495 5810 c-306 -48 -539 -242 -635 -528 -135 -405 30 -844 384
-1017 128 -63 187 -77 353 -82 156 -6 260 9 366 52 227 91 403 293 469 537 32
117 32 356 0 471 -71 260 -266 458 -532 542 -69 22 -109 27 -215 30 -71 2
-157 0 -190 -5z m254 -386 c156 -50 251 -177 273 -366 19 -163 -24 -307 -122
-406 -100 -102 -245 -137 -388 -93 -160 48 -249 169 -275 372 -13 106 6 219
53 315 79 162 275 237 459 178z"/>
</g>
</svg>
